<?xml version="1.0" standalone="no"?>
<!DOCTYPE svg PUBLIC "-//W3C//DTD SVG 20010904//EN"
 "http://www.w3.org/TR/2001/REC-SVG-20010904/DTD/svg10.dtd">
<svg version="1.0" xmlns="http://www.w3.org/2000/svg"
 width="2816.000000pt" height="1536.000000pt" viewBox="0 0 2816.000000 1536.000000"
 preserveAspectRatio="xMidYMid meet">
<metadata>
Created by potrace 1.16, written by Peter Selinger 2001-2019
</metadata>
<g transform="translate(0.000000,1536.000000) scale(0.100000,-0.100000)"
fill="#000000" stroke="none">
<path d="M14018 13604 c-36 -19 -58 -63 -58 -115 0 -33 6 -47 33 -74 44 -44
94 -54 144 -28 81 42 94 134 28 200 -27 27 -40 33 -76 33 -24 -1 -56 -7 -71
-16z"/>
<path d="M13370 13534 c-14 -2 -83 -11 -155 -20 -119 -14 -356 -52 -545 -87
-115 -22 -295 -72 -458 -128 -81 -28 -171 -57 -200 -65 -140 -39 -608 -245
-694 -306 -15 -10 -76 -45 -135 -77 -122 -65 -296 -172 -393 -239 -294 -207
-628 -471 -840 -665 -148 -135 -510 -528 -510 -553 0 -7 -6 -14 -13 -17 -15
-6 -243 -306 -330 -434 -30 -45 -72 -112 -92 -150 -21 -37 -46 -81 -57 -96
-11 -15 -18 -33 -15 -40 2 -6 -7 -20 -19 -29 -48 -38 -270 -502 -374 -783 -76
-205 -108 -307 -125 -397 -9 -45 -24 -114 -35 -153 -42 -153 -70 -280 -109
-490 -71 -381 -83 -480 -84 -700 -2 -181 0 -200 15 -203 22 -4 26 15 32 152 5
110 10 132 26 106 18 -28 32 40 26 120 -4 41 -9 100 -11 130 l-5 55 14 -35 c7
-19 11 -51 9 -70 l-4 -35 16 35 c16 35 59 193 89 330 21 94 96 370 141 515 18
61 36 121 40 135 26 105 172 444 338 782 141 287 203 397 374 668 33 52 68
111 79 130 17 32 29 48 87 119 9 12 17 24 17 28 0 11 101 141 281 363 205 253
292 336 567 542 150 114 172 131 278 217 33 28 155 112 271 188 116 76 248
163 294 194 146 98 387 230 579 319 188 86 705 291 774 306 147 33 345 84 396
103 61 22 382 91 535 116 113 18 194 39 220 59 23 17 14 43 -20 56 -25 9 -219
12 -275 4z"/>
<path d="M14565 13530 c-45 -11 -82 -28 -89 -39 -16 -26 163 -88 404 -141 858
-187 1253 -322 1840 -630 219 -115 236 -125 395 -231 72 -47 144 -94 160 -103
17 -9 82 -54 145 -101 63 -47 139 -102 169 -122 29 -20 69 -52 89 -70 20 -19
65 -55 101 -81 36 -25 71 -51 77 -57 7 -5 29 -23 49 -40 21 -16 43 -35 50 -42
7 -7 15 -9 19 -6 9 10 56 -38 49 -50 -3 -6 -1 -7 6 -3 12 8 41 -16 41 -33 0
-6 3 -10 8 -9 4 2 38 -31 76 -72 38 -41 76 -82 85 -90 9 -8 38 -41 65 -72 26
-32 53 -55 59 -51 6 3 7 1 3 -5 -7 -11 75 -111 172 -212 60 -61 107 -125 122
-164 5 -14 14 -26 20 -26 5 0 10 -5 10 -12 0 -6 11 -25 24 -42 22 -30 127
-192 206 -321 64 -104 275 -495 378 -702 147 -294 261 -596 326 -868 50 -210
69 -280 96 -365 16 -47 31 -109 35 -139 3 -30 16 -75 29 -100 28 -56 38 -97
76 -316 42 -243 49 -276 73 -317 25 -45 38 -47 67 -10 21 25 22 35 17 152 -6
149 -56 501 -97 690 -16 74 -36 178 -45 230 -27 163 -95 481 -122 565 -18 58
-58 162 -150 395 -67 170 -293 624 -380 765 -27 44 -87 144 -132 222 -100 173
-154 250 -324 458 -169 207 -173 211 -356 404 -245 257 -441 422 -741 622
-102 68 -234 160 -295 204 -235 174 -686 413 -1065 565 -362 145 -859 291
-1140 334 -58 9 -145 23 -195 31 -95 14 -360 18 -410 5z"/>
<path d="M12778 12815 c-291 -64 -661 -184 -963 -314 -257 -111 -633 -323
-860 -485 -66 -47 -146 -104 -177 -126 -77 -54 -89 -109 -33 -146 36 -24 71
-11 166 61 290 222 572 402 855 547 337 172 606 278 977 384 103 29 192 56
197 59 6 3 10 15 10 26 0 25 -33 24 -172 -6z"/>
<path d="M15192 12818 c3 -20 22 -28 188 -74 541 -150 988 -348 1458 -647 100
-64 255 -171 344 -237 88 -66 171 -123 184 -126 59 -15 104 26 90 80 -12 50
-268 230 -611 431 -311 182 -532 284 -876 401 -307 104 -650 194 -745 194 -31
0 -35 -3 -32 -22z"/>
<path d="M10470 11653 c-29 -11 -50 -36 -56 -70 -19 -99 93 -157 160 -82 24
27 27 38 23 73 -9 65 -67 101 -127 79z"/>
<path d="M17605 11637 c-18 -15 -28 -36 -32 -64 -5 -37 -2 -45 25 -73 39 -38
79 -40 121 -4 26 21 31 33 31 69 0 36 -5 48 -31 69 -38 32 -79 33 -114 3z"/>
<path d="M13735 11500 c-185 -9 -401 -33 -603 -65 -541 -88 -768 -219 -801
-462 -19 -141 -55 -1357 -46 -1538 14 -267 57 -526 119 -716 85 -262 253 -511
407 -602 35 -20 60 -37 55 -37 -21 0 -412 -65 -671 -111 -749 -134 -786 -143
-843 -202 -65 -67 -45 -149 44 -188 82 -37 207 -42 579 -25 187 9 394 20 460
26 66 5 165 12 220 15 302 17 1018 56 1193 65 348 18 704 59 1049 121 89 16
189 29 221 29 33 0 79 7 103 15 23 9 108 27 188 41 139 24 471 93 723 150
l117 26 56 -37 c73 -48 155 -81 240 -96 97 -17 291 -6 384 21 175 50 350 156
487 294 80 80 97 105 149 209 53 107 59 125 63 196 3 53 1 81 -7 85 -7 5 -38
-17 -76 -53 -126 -117 -257 -121 -575 -19 -153 49 -281 60 -394 34 -132 -31
-299 -139 -355 -230 l-21 -33 -282 -6 c-156 -4 -352 -10 -435 -13 l-153 -7 50
82 c27 46 52 92 55 102 4 11 33 33 65 49 33 17 115 74 182 128 68 55 193 143
278 198 335 214 468 332 609 542 187 278 239 656 129 937 -55 141 -195 300
-319 363 -200 101 -411 106 -694 15 -83 -26 -118 -34 -126 -26 -6 6 -15 58
-19 115 -5 57 -12 117 -16 133 -21 87 -101 185 -194 238 -97 56 -346 135 -524
167 -368 67 -695 88 -1071 70z m566 -120 c279 -22 566 -67 734 -115 117 -34
261 -103 312 -149 61 -55 72 -87 83 -243 12 -159 24 -191 84 -211 42 -13 45
-13 263 53 124 36 238 49 333 36 306 -41 485 -230 530 -560 21 -153 -21 -351
-110 -526 -112 -218 -278 -385 -585 -592 -116 -77 -268 -184 -340 -238 -71
-54 -158 -110 -192 -126 -60 -27 -62 -29 -101 -111 -22 -46 -58 -112 -80 -148
l-40 -65 -188 -20 c-104 -12 -191 -17 -193 -12 -5 12 73 169 130 262 63 104
135 193 268 335 60 63 141 153 180 198 l72 83 -6 -53 c-4 -29 -13 -99 -21
-156 -16 -119 -18 -202 -4 -202 26 0 70 120 95 259 9 47 18 95 20 106 4 18 12
20 77 20 66 0 81 4 158 44 165 84 373 256 465 386 130 183 192 418 151 570
-33 126 -125 235 -231 274 -62 23 -187 28 -265 10 -139 -32 -262 -131 -324
-263 -19 -41 -52 -90 -72 -108 -49 -47 -53 -79 -47 -328 l6 -205 -34 -12 c-48
-18 -168 -111 -396 -310 -318 -275 -451 -451 -556 -733 -19 -52 -41 -121 -47
-152 -14 -62 -9 -58 -107 -73 -37 -6 -43 -4 -43 12 0 49 52 259 85 348 103
275 224 429 525 670 265 212 361 325 425 501 27 74 45 214 28 214 -6 0 -21
-26 -33 -57 -45 -118 -55 -139 -94 -198 -54 -83 -236 -261 -391 -385 -230
-183 -387 -362 -484 -550 -59 -114 -123 -312 -152 -466 l-22 -112 -71 -7 c-39
-3 -163 -21 -276 -39 -113 -18 -206 -33 -207 -32 -1 1 -13 69 -27 151 -53 327
-159 507 -423 723 -86 70 -183 122 -277 149 -87 25 -176 31 -177 11 0 -9 -3
-8 -6 1 -4 10 -15 -5 -29 -38 -29 -65 -49 -65 -84 2 -20 38 -30 47 -52 47 -17
0 -31 -8 -38 -20 -6 -11 -15 -18 -21 -15 -5 4 -9 1 -9 -6 0 -8 -4 -8 -15 1
-12 10 -15 10 -16 -1 0 -8 -5 0 -10 16 -16 53 -26 343 -21 608 2 141 7 257 11
257 3 0 25 -11 48 -24 88 -51 83 -58 83 116 l0 154 -66 42 -66 42 6 83 c3 45
8 172 11 282 7 225 14 252 85 323 131 130 527 230 1075 271 163 12 552 12 706
1z m1842 -1017 c48 -20 111 -91 131 -150 25 -72 21 -178 -10 -275 -60 -191
-169 -334 -365 -483 -118 -89 -194 -127 -265 -133 l-54 -4 0 143 c0 79 -3 234
-7 345 l-6 201 36 39 c19 22 51 73 71 114 59 125 149 199 268 219 64 11 149 4
201 -16z m-3461 -1294 c10 -14 29 -73 41 -131 15 -74 26 -108 37 -111 21 -5
41 3 35 14 -3 4 13 -2 36 -14 56 -29 135 -107 186 -183 43 -64 133 -234 133
-253 0 -13 -37 -15 -42 -2 -1 4 -21 11 -43 14 -22 4 -34 4 -27 1 14 -7 17 -54
3 -54 -6 0 -16 8 -23 19 -7 10 -17 20 -23 22 -5 2 -9 7 -7 12 1 4 -2 7 -8 7
-5 0 -10 -4 -10 -10 0 -5 -5 -10 -11 -10 -6 0 -9 6 -6 13 3 7 -5 13 -19 13
-13 1 -24 -2 -24 -7 0 -21 -31 -6 -63 31 -19 22 -42 40 -51 40 -9 0 -15 4 -12
9 8 13 -19 32 -37 25 -10 -3 -18 2 -22 16 -4 12 -13 19 -23 18 -9 -2 -16 3
-14 10 1 6 -7 12 -18 12 -14 0 -18 5 -13 18 3 9 3 14 -2 10 -4 -4 -20 1 -36
12 -20 15 -28 17 -31 8 -9 -26 -90 226 -101 312 -3 25 -4 38 -1 30 2 -8 15
-20 27 -26 12 -6 39 -21 59 -33 l38 -23 -7 96 c-4 72 -3 99 7 111 18 22 49 15
72 -16z m4152 -485 c13 -5 7 -15 -28 -45 -51 -45 -76 -92 -76 -144 0 -83 57
-129 174 -141 37 -4 69 -11 72 -16 4 -5 -3 -19 -14 -31 -29 -31 -54 -94 -47
-120 6 -21 5 -21 -9 -4 -12 15 -18 17 -36 7 -27 -15 -45 -8 -45 16 0 17 -9 19
-100 21 -140 2 -201 9 -302 35 l-88 23 172 11 c120 7 177 15 189 25 16 13 15
15 -12 20 -16 4 -94 7 -173 8 -84 0 -141 5 -135 10 5 5 50 23 99 41 50 19 96
38 103 43 23 17 12 26 -25 20 -43 -6 -208 -47 -238 -58 -15 -6 -13 -3 6 13 47
38 172 100 257 127 95 31 101 51 12 42 -85 -9 -178 -43 -265 -97 -36 -22 -37
-22 -26 -3 17 33 111 113 166 141 90 46 153 61 257 61 53 1 104 -2 112 -5z
m227 -60 c125 -40 156 -46 234 -47 84 -1 108 4 188 38 16 7 14 -1 -11 -51 -25
-49 -43 -68 -103 -110 -86 -60 -133 -84 -233 -123 l-73 -28 5 23 c13 68 -19
91 -137 96 -66 3 -76 7 -97 31 -29 33 -30 52 -6 93 14 27 83 124 87 124 1 0
66 -21 146 -46z m-891 -267 c0 -28 4 -68 10 -86 5 -19 9 -36 7 -37 -1 -1 -161
-34 -356 -74 -195 -39 -365 -76 -378 -81 -18 -7 -25 -5 -29 6 -10 25 -59 18
-72 -10 -17 -36 -48 -32 -61 8 -19 60 -42 207 -39 249 3 42 4 43 41 46 l37 3
0 -55 c0 -51 24 -204 34 -213 3 -3 10 -2 16 2 8 5 8 11 -1 21 -9 11 -9 17 1
29 12 15 3 36 -25 58 -6 4 0 10 13 13 17 5 21 11 16 23 -4 9 -9 40 -12 68 -3
39 -1 54 9 57 22 8 388 23 597 24 l192 2 0 -53z m-985 1 c2 -13 7 -70 10 -128
2 -58 9 -121 15 -140 5 -19 10 -38 10 -41 0 -12 -53 -30 -62 -21 -20 20 -51
170 -52 251 -1 82 0 85 24 92 42 12 49 10 55 -13z m-204 -50 c-3 -24 -10 -41
-15 -40 -5 2 -13 -2 -17 -10 -7 -10 -9 -9 -9 5 0 11 -8 17 -21 17 -14 0 -19 5
-16 14 5 11 0 12 -23 3 -16 -6 -27 -15 -24 -19 3 -4 -6 -12 -20 -18 -28 -10
-66 -45 -66 -59 0 -10 -22 -15 -102 -26 -26 -3 -50 -10 -53 -16 -4 -5 -12 -6
-18 -2 -16 10 -87 11 -87 1 0 -4 -7 -8 -16 -8 -8 0 -13 4 -9 9 6 11 -59 26
-74 17 -5 -4 -12 -2 -16 4 -3 5 -1 10 6 10 7 0 10 2 8 5 -7 6 -327 -30 -489
-55 -97 -15 -108 -18 -50 -14 41 3 101 8 132 10 l57 4 3 -38 c2 -24 8 -36 16
-34 8 1 11 -1 8 -6 -6 -10 -36 -9 -54 2 -6 4 -12 3 -12 -2 0 -5 -18 -8 -39 -8
-22 1 -37 -3 -33 -8 3 -5 -2 -7 -10 -3 -9 3 -19 3 -22 0 -7 -7 -164 -16 -208
-12 -17 2 -127 -9 -155 -15 -13 -3 -23 -1 -23 4 0 5 -10 7 -22 5 -13 -2 -37
-6 -55 -8 -17 -3 -37 -8 -44 -13 -7 -4 -10 -3 -5 4 3 6 2 13 -3 16 -5 4 -12
-3 -16 -14 -4 -11 -10 -18 -14 -16 -4 3 -15 -4 -25 -16 -15 -17 -20 -18 -27
-7 -6 11 -9 10 -14 -4 -4 -9 -17 -16 -28 -16 -12 0 -96 -5 -187 -11 -171 -13
-274 -6 -276 18 -1 6 -2 17 -3 23 -1 7 -29 8 -85 3 -56 -4 -85 -3 -90 4 -7 12
4 16 84 31 35 7 39 9 16 10 -83 3 33 27 504 105 941 155 1121 178 1726 215 18
1 20 -3 15 -41z"/>
<path d="M13440 11284 c-379 -27 -693 -111 -777 -207 -42 -48 -50 -80 -30
-122 44 -92 278 -174 662 -230 249 -37 456 -48 725 -42 669 17 1144 123 1214
271 22 46 16 74 -26 121 -58 66 -212 124 -415 154 -142 22 -124 7 74 -58 163
-54 257 -96 287 -130 19 -21 19 -22 -3 -45 -12 -13 -40 -31 -61 -41 -39 -18
-40 -18 -97 8 -119 53 -334 99 -574 123 -322 32 -874 15 -1174 -36 -127 -22
-337 -74 -378 -95 -25 -13 -33 -12 -88 12 -61 26 -68 37 -46 66 31 41 241 118
457 166 84 19 473 81 507 81 7 0 13 5 13 10 0 12 -40 11 -270 -6z"/>
<path d="M13170 10568 c-41 -74 -157 -181 -240 -222 -79 -38 -172 -59 -221
-49 l-29 5 1 -151 c0 -99 4 -153 12 -158 19 -12 163 -5 228 11 201 50 407 218
503 409 43 85 57 130 46 147 -6 9 -207 47 -266 50 -6 0 -21 -19 -34 -42z"/>
<path d="M14433 10261 c-47 -22 -69 -50 -77 -101 -18 -112 102 -190 195 -127
41 28 59 60 59 110 0 100 -88 158 -177 118z"/>
<path d="M16169 9364 c-57 -48 -143 -113 -191 -145 -100 -68 -116 -85 -69 -76
43 9 150 79 242 159 74 65 135 135 126 144 -2 3 -51 -34 -108 -82z"/>
<path d="M13570 9250 c-11 -8 -7 -9 15 -4 28 7 29 6 15 -11 -9 -11 -10 -16 -2
-11 7 4 12 2 12 -5 0 -7 -10 -9 -25 -7 -14 3 -28 1 -31 -4 -3 -4 0 -7 7 -6 6
2 13 -2 16 -9 3 -7 -3 -9 -18 -6 -17 5 -20 3 -14 -7 5 -9 4 -11 -4 -6 -6 4 -8
12 -5 18 4 7 2 8 -4 4 -16 -9 -15 3 1 24 6 9 2 5 -10 -8 -30 -31 -32 -108 -3
-144 45 -57 125 -61 176 -7 24 25 29 39 29 79 0 40 -5 54 -29 79 -34 36 -39
37 -60 15 -14 -13 -16 -13 -16 -1 0 9 6 18 13 20 6 3 -1 6 -18 6 -16 0 -37 -4
-45 -9z"/>
<path d="M10134 11399 c-44 -13 -91 -69 -99 -118 -8 -50 21 -120 62 -146 59
-39 147 -28 198 25 59 61 40 186 -34 224 -38 20 -91 26 -127 15z"/>
<path d="M17942 11400 c-108 -25 -147 -171 -66 -247 67 -63 171 -54 225 19 79
111 -24 259 -159 228z"/>
<path d="M9847 11009 c-26 -15 -46 -68 -40 -102 7 -36 57 -77 94 -77 44 0 69
17 85 57 18 42 5 94 -29 118 -25 17 -84 19 -110 4z"/>
<path d="M18212 11013 c-7 -3 -19 -18 -27 -33 -37 -72 -1 -140 75 -140 56 0
90 34 90 90 0 54 -36 90 -89 89 -20 0 -42 -3 -49 -6z"/>
<path d="M9652 10684 c-12 -8 -40 -42 -62 -74 -49 -73 -230 -369 -230 -378 0
-3 -29 -58 -64 -121 -109 -198 -234 -489 -332 -773 -52 -152 -163 -572 -193
-728 -42 -223 -89 -750 -85 -970 2 -150 2 -150 29 -150 31 0 32 7 39 175 19
467 114 1011 241 1390 178 530 377 952 645 1365 106 164 110 172 110 207 0 34
-8 46 -37 62 -28 14 -34 14 -61 -5z"/>
<path d="M18432 10684 c-17 -11 -22 -25 -22 -57 0 -36 12 -60 91 -176 51 -73
117 -177 147 -230 30 -53 71 -123 90 -156 115 -199 258 -517 368 -822 179
-493 285 -1039 310 -1592 6 -137 9 -153 27 -162 12 -7 23 -7 29 -1 5 5 9 88 8
191 -1 327 -50 780 -116 1076 -143 641 -361 1172 -712 1737 -125 201 -162 233
-220 192z"/>
<path d="M9693 8464 c-55 -20 -131 -88 -154 -139 -24 -52 -24 -138 0 -190 11
-25 54 -73 109 -124 95 -87 142 -157 142 -214 0 -50 -22 -105 -58 -148 -19
-22 -32 -42 -29 -45 11 -11 79 10 129 40 68 41 113 101 128 170 22 107 -28
202 -165 310 -46 37 -90 77 -97 89 -44 66 -28 141 43 208 27 26 49 50 49 53 0
11 -54 5 -97 -10z"/>
<path d="M9351 8133 c-36 -44 -46 -96 -31 -154 16 -60 49 -100 127 -155 84
-60 100 -94 77 -160 -8 -25 -13 -48 -11 -51 8 -7 60 23 89 52 82 82 53 200
-69 283 -103 71 -139 124 -127 188 9 47 -15 45 -55 -3z"/>
<path d="M8136 7601 c-39 -26 -55 -57 -56 -104 -1 -101 91 -156 179 -109 112
60 80 218 -46 229 -36 3 -55 -1 -77 -16z"/>
<path d="M19915 7610 c-11 -4 -31 -20 -45 -35 -20 -22 -25 -37 -25 -81 0 -46
4 -58 30 -84 38 -38 88 -47 138 -27 65 28 97 115 63 175 -28 51 -104 76 -161
52z"/>
<path d="M9475 7466 c-160 -31 -286 -113 -365 -236 -88 -138 -79 -339 21 -489
53 -79 129 -140 298 -240 304 -178 395 -252 448 -359 25 -51 28 -67 28 -162 0
-99 -2 -109 -33 -172 -55 -113 -160 -190 -280 -206 -178 -23 -345 51 -412 185
-47 94 -37 233 22 309 25 31 91 63 131 64 98 1 177 -133 117 -198 -23 -24 -62
-37 -85 -28 -20 7 -19 -14 1 -42 23 -34 68 -52 126 -52 216 1 278 247 103 409
-156 143 -421 132 -578 -26 -212 -211 -118 -572 187 -717 124 -60 177 -71 336
-71 149 0 225 17 345 77 248 125 374 388 322 675 -36 196 -140 326 -367 457
-365 211 -438 264 -479 350 -23 47 -28 136 -10 183 31 84 139 143 262 143 127
0 214 -61 232 -161 8 -42 -18 -112 -54 -143 -29 -27 -28 -80 3 -111 81 -81
246 -39 309 78 34 65 31 183 -6 259 -49 100 -156 178 -292 213 -86 22 -246 27
-330 11z"/>
<path d="M15148 7369 c-34 -62 -73 -130 -85 -152 -27 -47 -31 -123 -8 -167 8
-16 32 -42 52 -57 32 -25 45 -28 108 -28 63 0 76 3 108 28 62 47 86 120 63
186 -7 22 -31 68 -53 103 -22 35 -54 91 -71 125 -18 34 -36 64 -41 67 -5 3
-38 -44 -73 -105z"/>
<path d="M12775 7371 c-11 -5 -28 -17 -37 -27 -29 -34 -188 -298 -188 -315 0
-41 74 -64 123 -38 40 22 257 199 273 224 34 51 -1 117 -78 150 -41 17 -63 18
-93 6z"/>
<path d="M17985 7345 c-116 -48 -187 -120 -226 -229 -22 -64 -39 -167 -39
-243 l0 -53 -53 0 c-73 0 -88 -13 -89 -79 -2 -67 14 -81 89 -81 l53 0 0 -467
c0 -483 -5 -565 -41 -634 -23 -45 -54 -57 -109 -40 -61 18 -98 14 -127 -15
-22 -22 -25 -32 -20 -67 11 -81 90 -122 227 -115 161 7 294 121 346 297 27 93
34 224 34 628 l0 413 98 0 c63 0 104 4 114 13 9 6 19 35 23 63 9 73 -8 84
-137 84 l-98 0 0 133 c0 202 34 287 114 287 42 0 66 -28 66 -80 1 -103 40
-160 111 -160 58 0 97 24 120 73 37 82 14 179 -55 232 -89 68 -285 87 -401 40z"/>
<path d="M8204 7112 c-12 -10 -26 -27 -32 -38 -34 -64 -21 -336 28 -586 17
-84 42 -228 55 -320 16 -102 43 -227 72 -325 25 -87 56 -201 69 -253 34 -141
99 -326 139 -393 19 -32 35 -62 35 -66 0 -17 74 -186 134 -308 36 -73 66 -134
66 -137 0 -6 130 -242 193 -351 47 -81 169 -258 271 -394 39 -51 81 -108 94
-125 53 -74 212 -275 281 -356 140 -164 349 -362 541 -510 52 -40 127 -99 165
-130 146 -118 515 -389 625 -460 63 -40 136 -90 161 -111 126 -103 649 -325
1154 -489 498 -162 531 -170 1005 -231 489 -63 911 -82 1070 -48 49 10 92 14
380 29 107 6 215 13 240 16 98 12 205 35 208 44 2 5 15 7 30 4 34 -7 504 127
807 230 402 135 840 330 1205 536 241 135 394 239 720 486 189 143 659 598
722 700 29 45 177 233 233 294 78 86 350 492 434 650 106 198 208 407 245 505
18 50 52 137 75 195 22 58 41 115 41 127 0 12 8 41 18 65 10 24 31 86 46 138
15 52 49 165 76 250 53 171 85 311 77 341 -3 10 -1 22 4 25 14 8 10 24 -6 24
-20 0 -19 10 3 27 13 12 14 14 1 10 -12 -4 -16 4 -18 35 -2 36 0 40 19 35 13
-3 20 0 20 10 0 8 -4 11 -10 8 -5 -3 -10 1 -10 9 0 10 6 13 15 10 10 -4 15 0
15 15 0 12 -6 21 -13 21 -15 0 -21 46 -7 55 6 3 10 19 10 35 0 15 5 30 11 32
7 2 11 24 11 51 -1 44 11 63 21 35 13 -40 48 269 50 449 2 120 -38 102 -56
-24 -7 -56 -17 -86 -34 -106 -12 -16 -23 -41 -24 -55 -2 -109 -17 -182 -63
-307 -14 -38 -26 -82 -26 -96 0 -37 -75 -337 -100 -400 -12 -30 -46 -124 -75
-209 -75 -215 -104 -293 -119 -310 -8 -8 -16 -32 -20 -52 -20 -113 -146 -387
-280 -610 -41 -69 -90 -157 -110 -196 -20 -39 -66 -119 -103 -176 -38 -58 -95
-149 -128 -202 -80 -131 -211 -304 -334 -441 -55 -62 -135 -157 -178 -210 -42
-54 -134 -156 -203 -227 -133 -137 -443 -402 -575 -492 -44 -30 -129 -88 -190
-129 -60 -41 -155 -105 -210 -144 -145 -100 -229 -149 -515 -294 -140 -71
-259 -133 -265 -137 -36 -28 -622 -256 -705 -275 -9 -1 -54 -15 -101 -29 -142
-43 -505 -114 -669 -130 -273 -27 -651 -48 -853 -47 -216 1 -361 11 -572 41
-77 11 -207 29 -290 40 -82 12 -184 29 -225 40 -41 10 -102 22 -135 25 -33 4
-89 17 -125 30 -36 12 -103 30 -150 40 -84 16 -329 107 -505 186 -49 23 -141
61 -204 87 -63 25 -254 116 -425 202 -340 171 -483 259 -791 489 -470 350
-755 614 -975 900 -99 128 -247 330 -287 391 -120 183 -163 252 -183 291 -12
24 -33 55 -45 69 -13 14 -55 87 -94 163 -39 76 -88 168 -110 205 -78 135 -188
359 -221 452 -18 52 -62 168 -96 258 -35 90 -70 191 -79 225 -9 34 -24 71 -34
82 -35 38 -159 589 -186 827 -9 79 -28 181 -41 227 -13 46 -24 89 -24 97 0 10
-38 85 -43 84 -1 -1 -11 -9 -23 -18z"/>
<path d="M10700 6836 c-179 -48 -323 -218 -365 -428 -46 -231 10 -454 149
-592 101 -100 211 -146 351 -146 131 0 226 39 316 129 94 95 127 190 77 225
-12 9 -26 16 -30 16 -5 0 -37 -26 -72 -59 -34 -32 -80 -64 -102 -71 -91 -31
-199 -10 -268 52 -45 39 -113 156 -99 168 5 4 35 12 68 19 158 32 332 109 407
179 68 64 91 112 91 188 -1 144 -113 279 -265 320 -64 17 -197 17 -258 0z
m184 -156 c41 -37 59 -84 58 -156 -1 -103 -56 -160 -214 -223 -107 -43 -108
-43 -108 27 1 144 32 266 83 321 62 68 126 78 181 31z"/>
<path d="M11570 6824 c-30 -14 -93 -39 -139 -55 -47 -16 -91 -35 -98 -41 -22
-18 -15 -46 22 -86 19 -21 39 -52 46 -68 15 -37 24 -419 14 -578 -7 -110 -9
-120 -40 -166 -41 -62 -49 -90 -29 -118 15 -21 21 -22 215 -22 119 0 208 4
220 10 31 17 24 66 -18 128 l-38 54 0 292 c0 286 0 292 24 339 40 80 101 111
137 68 75 -90 90 -101 139 -101 41 0 52 5 85 38 46 45 64 104 55 173 -17 124
-132 188 -266 147 -54 -16 -114 -70 -151 -135 -36 -63 -48 -57 -48 24 0 55
-14 103 -33 115 -19 12 -38 9 -97 -18z"/>
<path d="M12505 6836 c-75 -19 -147 -60 -189 -106 -47 -52 -66 -96 -66 -154 0
-89 99 -154 191 -127 49 15 67 41 80 120 38 216 241 197 264 -25 9 -95 3 -101
-165 -160 -249 -87 -338 -143 -387 -242 -25 -50 -28 -68 -28 -152 0 -118 24
-180 95 -243 128 -115 374 -95 476 38 l28 37 14 -29 c39 -77 99 -113 189 -113
100 0 198 63 216 138 7 31 -24 62 -61 62 -30 0 -56 22 -65 55 -3 11 -9 156
-12 323 -6 322 -10 353 -60 432 -34 54 -100 107 -164 131 -70 27 -276 36 -356
15z m285 -658 c-1 -189 -15 -235 -90 -285 -38 -26 -79 -29 -119 -9 -89 47 -94
213 -9 298 33 33 183 117 211 118 4 0 7 -55 7 -122z"/>
<path d="M13504 6825 c-29 -13 -92 -38 -140 -55 -48 -17 -94 -36 -101 -42 -23
-19 -14 -51 26 -93 21 -22 43 -55 50 -74 14 -43 15 -577 1 -651 -6 -30 -24
-74 -40 -100 -35 -54 -38 -80 -12 -103 27 -25 402 -25 426 -1 24 24 19 50 -21
117 l-38 60 -3 246 c-2 135 -1 279 3 318 10 112 61 172 152 180 44 5 52 2 79
-25 50 -49 54 -82 54 -406 0 -314 -2 -333 -50 -393 -26 -34 -27 -89 -1 -103
12 -6 99 -10 215 -10 164 0 197 3 210 16 25 24 19 55 -23 116 l-39 57 -7 187
c-11 271 -4 418 23 471 28 55 73 85 134 91 42 4 53 1 74 -19 48 -45 49 -47 55
-414 5 -295 9 -359 24 -405 51 -161 128 -245 275 -301 151 -57 357 -36 368 38
3 18 -4 21 -60 25 -117 10 -199 61 -248 158 -45 88 -51 146 -59 535 -7 344 -9
374 -28 423 -49 121 -123 172 -261 180 -77 4 -87 2 -145 -26 -34 -17 -89 -55
-121 -84 -33 -29 -61 -48 -63 -42 -9 27 -57 81 -95 106 -56 38 -109 51 -193
46 -89 -4 -150 -33 -221 -105 -30 -29 -55 -53 -58 -53 -2 0 -7 26 -11 58 -12
105 -38 120 -131 77z"/>
<path d="M15168 6796 c-81 -29 -154 -59 -163 -66 -24 -20 -18 -54 16 -86 58
-53 59 -64 59 -406 0 -180 -4 -328 -10 -349 -6 -20 -24 -54 -40 -74 -33 -42
-39 -85 -14 -109 13 -14 47 -16 213 -16 179 0 199 2 214 18 24 26 21 49 -12
101 -17 25 -34 66 -40 91 -6 27 -11 217 -11 482 l0 437 -22 15 c-12 9 -27 16
-33 15 -5 0 -76 -24 -157 -53z"/>
<path d="M15931 6834 c-159 -42 -288 -168 -349 -338 -24 -65 -26 -84 -26 -236
0 -152 2 -171 26 -236 71 -198 224 -325 418 -347 161 -19 278 20 375 124 81
88 117 183 83 217 -21 21 -47 13 -91 -27 -90 -83 -188 -109 -287 -76 -134 44
-215 188 -227 401 -13 224 70 394 191 394 78 0 111 -46 126 -177 7 -62 13 -80
36 -104 32 -33 91 -55 126 -46 39 10 79 47 99 91 66 145 -60 322 -259 365 -71
15 -175 13 -241 -5z"/>
<path d="M16878 6835 c-86 -22 -150 -58 -200 -113 -41 -46 -68 -104 -68 -147
0 -36 43 -95 85 -115 103 -50 175 -5 190 118 13 103 42 142 107 142 93 0 139
-60 146 -186 5 -100 12 -94 -176 -159 -235 -80 -314 -131 -364 -233 -30 -60
-33 -76 -33 -153 0 -79 3 -92 35 -155 28 -55 46 -76 90 -107 132 -90 338 -67
439 49 l36 41 27 -47 c35 -62 90 -90 176 -90 99 0 190 55 208 125 11 43 1 59
-46 72 -78 23 -74 5 -81 366 -5 308 -6 325 -29 382 -34 86 -114 164 -200 194
-83 30 -257 38 -342 16z m267 -688 c-8 -168 -15 -196 -60 -236 -46 -40 -93
-48 -142 -25 -56 28 -75 72 -70 161 5 85 26 124 96 171 52 35 162 83 174 75 4
-2 5 -68 2 -146z"/>
<path d="M18651 6834 c-155 -42 -278 -165 -337 -341 -36 -105 -45 -293 -20
-407 65 -292 320 -464 598 -405 133 28 263 139 304 259 14 42 7 74 -20 92 -18
12 -22 10 -83 -43 -79 -70 -122 -89 -209 -89 -117 0 -194 51 -253 167 -11 23
-21 48 -21 55 0 9 30 20 88 31 103 21 261 82 332 127 171 110 196 296 59 445
-80 87 -176 125 -309 124 -41 0 -99 -7 -129 -15z m167 -138 c34 -17 69 -78 78
-134 14 -87 -29 -164 -120 -217 -43 -25 -168 -75 -188 -75 -17 0 -3 223 18
287 38 117 134 179 212 139z"/>
<path d="M10810 5208 c-36 -19 -51 -34 -74 -81 -55 -110 -35 -280 40 -346 86
-76 209 -56 260 41 14 27 13 28 -23 46 l-37 19 -21 -31 c-22 -32 -50 -42 -92
-31 -74 18 -87 249 -16 305 36 28 61 25 97 -14 l32 -33 37 19 37 18 -23 35
c-26 41 -89 75 -138 75 -19 0 -55 -10 -79 -22z"/>
<path d="M13021 5213 c-126 -63 -149 -331 -36 -436 71 -65 198 -52 245 26 27
44 25 51 -15 70 l-35 17 -15 -30 c-29 -57 -104 -51 -136 10 -23 43 -26 164 -5
215 29 69 99 83 134 26 17 -28 18 -28 55 -14 44 18 46 31 10 74 -49 58 -134
75 -202 42z"/>
<path d="M13956 5215 c-58 -31 -76 -85 -51 -155 15 -42 15 -44 -9 -69 -85 -88
-60 -223 45 -251 42 -12 99 -2 134 24 17 12 21 12 33 -5 10 -14 25 -19 58 -19
24 0 44 4 44 9 0 4 -15 28 -34 52 -28 34 -33 47 -25 61 6 11 17 37 24 58 14
40 14 40 -15 55 -16 8 -31 15 -33 15 -2 0 -9 -18 -16 -41 -14 -46 -25 -43 -61
16 l-20 32 45 45 c37 37 45 52 45 82 0 77 -94 129 -164 91z"/>
<path d="M14523 5211 c-125 -57 -153 -303 -47 -420 66 -73 174 -75 241 -4 40
41 42 66 8 81 -38 17 -51 15 -63 -13 -25 -54 -103 -43 -136 20 -26 51 -28 164
-2 212 35 69 96 80 136 23 21 -29 21 -29 55 -13 19 9 35 21 35 26 0 6 -12 26
-26 45 -47 61 -123 78 -201 43z"/>
<path d="M11110 4980 l0 -240 130 0 130 0 0 40 0 40 -85 0 -85 0 0 65 0 65 80
0 80 0 0 40 0 40 -80 0 -80 0 0 55 0 55 85 0 85 0 0 40 0 40 -130 0 -130 0 0
-240z"/>
<path d="M11450 4980 l0 -240 45 0 45 0 0 91 0 90 25 -3 c22 -3 32 -16 63 -88
l38 -85 47 -3 c34 -2 47 1 46 10 0 7 -17 51 -38 98 l-38 84 25 20 c51 41 65
121 33 192 -27 59 -65 74 -190 74 l-101 0 0 -240z m200 145 c19 -23 16 -81 -5
-105 -13 -14 -30 -20 -62 -20 l-43 0 0 70 0 70 49 0 c31 0 53 -5 61 -15z"/>
<path d="M11920 5178 c-6 -24 -36 -127 -66 -229 -30 -103 -54 -192 -54 -198 0
-6 18 -11 44 -11 l45 0 13 48 14 47 72 3 c54 2 72 0 72 -10 0 -7 5 -30 11 -50
10 -37 12 -38 54 -38 35 0 45 4 45 16 0 14 -87 324 -121 432 -10 31 -12 32
-64 32 l-54 0 -11 -42z"/>
<path d="M12230 4980 l0 -240 45 0 45 0 1 153 1 152 50 -147 c66 -197 71 -197
135 -2 l48 146 5 -149 5 -148 43 -3 42 -3 0 241 0 241 -57 -3 -58 -3 -47 -138
c-25 -76 -48 -134 -51 -130 -3 4 -23 68 -46 141 l-42 132 -59 0 -60 0 0 -240z"/>
<path d="M12745 5165 c-4 -30 -5 -136 -3 -237 l4 -183 44 0 45 0 3 238 2 237
-44 0 -45 0 -6 -55z"/>
<path d="M13347 4991 c-37 -126 -67 -235 -67 -241 0 -7 17 -10 47 -8 47 3 47
3 58 48 l11 45 72 3 c54 2 72 0 72 -10 0 -7 5 -30 11 -50 10 -37 12 -38 54
-38 36 0 45 3 45 18 0 9 -29 116 -64 237 l-63 220 -55 3 -54 3 -67 -230z"/>
<path d="M14891 5153 c-58 -197 -111 -389 -111 -401 0 -9 13 -12 47 -10 47 3
47 3 58 48 l11 45 69 0 69 0 14 -47 13 -48 45 0 c29 0 44 4 44 13 0 11 -54
206 -111 400 l-20 67 -54 0 -54 0 -20 -67z"/>
<path d="M15205 5158 c-3 -35 -5 -142 -3 -238 l3 -175 45 0 45 0 3 103 3 102
79 0 80 0 0 40 0 40 -80 0 -80 0 0 55 0 54 83 3 82 3 0 35 0 35 -127 3 -126 3
-7 -63z"/>
<path d="M15540 4980 l0 -241 133 3 132 3 3 38 3 37 -90 0 -91 0 0 65 0 65 80
0 80 0 0 40 0 40 -80 0 -80 0 0 55 0 55 85 0 85 0 0 40 0 40 -130 0 -130 0 0
-240z"/>
<path d="M15854 5206 c-3 -8 -4 -25 -2 -38 3 -20 9 -23 56 -26 l52 -3 0 -200
0 -200 43 3 42 3 3 198 2 197 50 0 50 0 0 40 0 40 -145 0 c-117 0 -147 -3
-151 -14z"/>
<path d="M16220 4980 l0 -240 130 0 130 0 0 40 0 40 -85 0 -85 0 0 65 0 65 81
0 80 0 -3 38 -3 37 -77 3 -78 3 0 54 0 54 83 3 82 3 3 38 3 37 -130 0 -131 0
0 -240z"/>
<path d="M16560 4980 l0 -240 45 0 45 0 0 90 c0 88 1 90 24 90 20 0 29 -13 61
-90 l38 -90 48 0 c27 0 49 4 49 9 0 5 -18 48 -39 95 l-40 86 29 28 c50 51 61
141 23 200 -30 48 -70 62 -180 62 l-103 0 0 -240z m192 143 c22 -20 24 -71 2
-101 -12 -17 -25 -22 -60 -22 l-44 0 0 70 0 70 42 0 c24 0 49 -7 60 -17z"/>
<path d="M16942 4983 l3 -238 43 -3 42 -3 0 240 0 241 -45 0 -45 0 2 -237z"/>
<path d="M17157 4988 c-37 -128 -67 -237 -67 -241 0 -4 20 -7 44 -7 l45 0 13
48 14 47 71 3 71 3 12 -51 12 -50 48 0 48 0 -20 73 c-12 39 -42 146 -67 237
l-47 165 -55 3 -56 3 -66 -233z"/>
<path d="M9701 5114 c-26 -22 -31 -33 -31 -70 0 -58 35 -94 89 -94 45 0 74 19
91 59 38 93 -72 170 -149 105z"/>
<path d="M18343 5122 c-49 -39 -49 -122 0 -157 34 -24 94 -19 122 9 34 34 40
68 20 109 -26 55 -97 75 -142 39z"/>
<path d="M10105 4814 c-33 -25 -108 -80 -167 -121 l-107 -76 15 -28 c7 -15 18
-30 24 -34 5 -3 36 12 68 33 l58 40 45 -48 c69 -72 144 -77 211 -13 53 51 59
121 15 192 -29 48 -77 101 -91 101 -6 0 -38 -21 -71 -46z"/>
<path d="M17916 4780 c-14 -17 -26 -36 -26 -42 0 -11 255 -354 270 -363 5 -3
20 9 34 27 23 30 24 35 10 53 -38 53 -39 61 -4 105 34 43 37 44 106 24 16 -4
26 2 42 28 12 18 18 36 14 40 -4 3 -95 39 -202 79 -107 39 -200 74 -206 76 -6
2 -23 -10 -38 -27z"/>
<path d="M17733 4540 c-43 -50 -80 -95 -82 -101 -4 -13 28 -49 45 -49 7 0 22
14 34 30 12 17 25 30 30 30 6 0 56 -39 112 -88 57 -48 119 -100 138 -116 l34
-28 23 26 c13 15 23 31 23 36 0 5 -57 57 -127 116 -71 59 -132 111 -137 115
-5 5 3 26 19 49 27 39 28 41 9 55 -10 8 -24 15 -31 15 -7 0 -47 -41 -90 -90z"/>
<path d="M10223 4449 c-95 -77 -173 -144 -173 -148 0 -3 11 -19 24 -36 22 -28
25 -29 43 -14 10 8 87 73 171 144 83 71 152 132 152 136 0 4 -10 20 -22 34
l-23 26 -172 -142z"/>
<path d="M9407 4574 c-15 -16 -4 -42 64 -148 69 -108 88 -135 213 -301 183
-243 518 -608 741 -805 488 -431 1108 -810 1677 -1026 218 -82 527 -175 748
-225 256 -58 770 -100 799 -65 22 26 -27 43 -229 76 -300 49 -649 135 -855
211 -16 6 -50 17 -75 24 -161 49 -591 213 -740 282 -47 22 -166 84 -265 138
-99 54 -224 122 -278 152 -281 152 -736 510 -1052 827 -289 290 -401 422 -685
812 -36 48 -51 60 -63 48z"/>
<path d="M18695 4523 c-58 -88 -253 -347 -344 -454 -315 -376 -736 -754 -1141
-1024 -706 -469 -1463 -776 -2305 -934 -88 -16 -200 -37 -248 -46 -105 -19
-137 -32 -137 -56 0 -46 148 -49 460 -9 206 27 244 34 455 85 585 143 1202
424 1734 788 496 341 868 682 1218 1119 175 219 373 518 373 565 0 39 -25 26
-65 -34z"/>
<path d="M10337 4305 c-86 -80 -157 -148 -157 -151 0 -14 34 -54 46 -54 8 0
55 38 106 85 50 47 93 84 94 82 2 -1 -17 -60 -41 -131 -25 -70 -45 -135 -45
-145 0 -10 11 -28 25 -41 l24 -23 138 131 c76 71 148 141 160 154 l23 24 -30
29 -29 28 -86 -82 c-48 -46 -88 -81 -90 -79 -2 2 16 62 41 132 36 105 42 131
32 145 -14 19 -40 41 -47 41 -3 0 -77 -65 -164 -145z"/>
<path d="M17580 4358 c-11 -12 -20 -27 -20 -33 0 -7 52 -62 115 -123 123 -119
135 -142 95 -182 -41 -41 -66 -29 -192 97 l-117 117 -26 -24 c-14 -13 -25 -27
-25 -31 0 -5 52 -62 116 -128 122 -127 157 -148 217 -136 79 17 132 88 124
168 -4 47 -8 53 -128 173 -68 68 -127 124 -131 124 -4 0 -16 -10 -28 -22z"/>
<path d="M10727 4172 c-23 -25 -22 -31 14 -68 l32 -33 -119 -126 c-66 -69
-121 -131 -123 -136 -3 -11 37 -59 50 -59 6 0 33 27 196 200 l62 65 28 -28
c35 -32 44 -33 69 -6 18 20 18 21 -77 115 -53 52 -100 94 -106 94 -5 0 -17 -8
-26 -18z"/>
<path d="M17280 4053 c-51 -34 -130 -106 -130 -117 0 -12 266 -319 281 -325 6
-2 21 7 34 19 28 27 25 35 -35 106 -32 36 -38 49 -29 60 17 21 32 18 110 -21
l70 -36 29 23 c16 13 29 28 29 34 1 6 -35 28 -79 48 l-80 36 0 46 c0 55 -29
108 -70 129 -39 20 -100 19 -130 -2z"/>
<path d="M10858 3802 c-97 -70 -177 -132 -178 -139 0 -6 14 -21 30 -33 l30
-21 30 21 c35 25 39 24 97 -19 l42 -31 -17 -46 -17 -46 29 -25 c16 -13 32 -21
37 -16 11 11 179 405 179 420 0 13 -61 63 -76 62 -5 0 -89 -58 -186 -127z"/>
<path d="M16996 3819 c-53 -44 -84 -75 -79 -82 17 -29 243 -326 252 -332 15
-9 61 24 61 44 0 9 -23 45 -50 80 -28 35 -50 66 -50 70 1 3 26 26 56 50 51 40
54 45 41 64 -21 32 -29 31 -87 -14 l-55 -40 -32 37 c-18 21 -33 41 -33 45 0 4
25 27 55 51 30 23 55 48 55 54 0 11 -32 44 -42 44 -3 0 -44 -32 -92 -71z"/>
<path d="M11336 3665 c-20 -30 -15 -40 25 -60 16 -9 29 -20 29 -25 0 -6 -43
-75 -96 -155 -53 -79 -94 -150 -91 -157 7 -20 57 -44 65 -32 29 43 196 290
198 293 2 2 18 -6 37 -18 43 -27 44 -27 61 8 l15 29 -107 71 c-59 39 -111 71
-114 71 -3 0 -13 -11 -22 -25z"/>
<path d="M16775 3661 c-59 -26 -95 -73 -95 -122 0 -92 61 -135 179 -127 79 6
111 -7 111 -46 0 -34 -30 -56 -79 -56 -36 0 -43 -4 -52 -27 -13 -35 -6 -51 26
-59 67 -17 164 50 185 127 16 57 -1 102 -48 131 -33 20 -48 22 -128 20 -101
-3 -121 7 -110 53 7 26 27 39 77 49 19 4 28 14 32 33 3 15 3 31 0 35 -8 14
-57 8 -98 -11z"/>
<path d="M16540 3507 c-15 -8 -25 -21 -24 -33 1 -34 202 -364 222 -364 21 1
52 23 52 39 0 14 -186 330 -209 353 -14 15 -20 16 -41 5z"/>
<path d="M11548 3363 c-78 -130 -83 -141 -83 -195 0 -46 4 -61 25 -83 66 -70
164 -84 220 -30 15 15 63 90 106 167 l77 141 -23 19 c-13 10 -30 17 -39 16 -9
-2 -48 -60 -86 -130 -82 -148 -99 -168 -136 -168 -36 0 -73 44 -64 78 3 13 39
80 80 149 41 69 75 128 75 132 0 13 -36 41 -53 41 -10 0 -47 -52 -99 -137z"/>
<path d="M16253 3344 c-44 -23 -73 -44 -73 -54 1 -26 186 -365 201 -368 22 -4
150 70 172 99 44 61 38 159 -16 252 -41 69 -87 100 -155 105 -51 3 -65 -1
-129 -34z m164 -60 c29 -18 83 -129 83 -172 0 -25 -8 -41 -31 -63 -17 -16 -37
-29 -45 -29 -19 0 -147 257 -133 266 40 24 85 24 126 -2z"/>
<path d="M12093 3248 c-11 -15 -173 -370 -173 -380 0 -13 60 -39 72 -32 6 4
24 36 40 71 23 52 32 63 46 58 92 -40 130 -40 177 -3 36 28 55 70 55 120 0 65
-29 104 -103 138 -87 39 -103 42 -114 28z"/>
<path d="M15951 3206 c-34 -19 -39 -38 -40 -128 -1 -43 -5 -78 -9 -78 -4 0
-34 27 -67 60 -33 33 -65 60 -72 60 -21 0 -63 -23 -63 -34 0 -6 45 -51 99
-100 95 -85 100 -92 132 -173 31 -80 34 -84 58 -78 53 13 55 25 21 111 l-32
79 9 125 c12 185 12 183 -36 156z"/>
<path d="M12399 3104 c-39 -103 -129 -366 -129 -379 0 -17 46 -39 66 -31 6 2
20 29 29 58 26 77 32 87 54 81 17 -4 21 -17 27 -94 6 -85 8 -91 35 -104 48
-25 60 -20 55 23 -19 145 -18 152 11 163 41 15 60 36 79 85 34 90 -6 156 -121
194 -38 13 -76 25 -82 27 -7 3 -18 -8 -24 -23z"/>
<path d="M15358 2998 l-28 -10 0 -230 0 -230 37 7 c52 9 53 11 53 60 l0 44 57
17 57 17 31 -37 c29 -35 31 -35 68 -25 23 6 37 15 34 22 -2 7 -47 77 -99 157
-52 80 -104 162 -117 183 -24 39 -42 44 -93 25z"/>
<path d="M12785 2976 c-48 -22 -85 -69 -111 -140 -48 -133 -24 -238 66 -284
91 -47 177 -9 235 103 27 52 30 68 30 144 -1 96 -9 118 -61 157 -42 32 -114
41 -159 20z m121 -91 c23 -35 15 -145 -15 -202 -39 -77 -101 -93 -137 -38 -32
50 -9 185 41 239 33 36 88 36 111 1z"/>
<path d="M15033 2917 c-88 -19 -93 -21 -93 -46 0 -47 9 -51 80 -36 36 8 70 14
77 15 7 0 -9 -63 -43 -162 -30 -89 -54 -167 -54 -173 0 -6 6 -20 14 -30 13
-18 16 -18 122 0 122 20 144 28 144 53 -1 40 -12 44 -93 29 -42 -8 -78 -13
-80 -11 -2 2 18 77 45 166 27 89 48 173 46 187 -3 22 -8 26 -38 27 -19 1 -77
-7 -127 -19z"/>
<path d="M13091 2808 c-12 -62 -30 -159 -40 -216 l-19 -103 25 -10 c54 -20 60
-15 74 68 l14 78 73 -3 c85 -4 115 10 138 63 31 76 10 161 -49 191 -28 15
-150 44 -183 44 -7 0 -21 -47 -33 -112z"/>
<path d="M14742 2865 c-51 -7 -96 -16 -100 -19 -7 -7 47 -408 57 -424 4 -6 50
-3 121 7 l115 16 3 33 c3 30 2 32 -30 31 -18 0 -57 -4 -85 -8 -36 -5 -53 -4
-54 3 0 6 -4 32 -8 58 l-8 47 46 7 c75 10 106 20 105 32 -1 7 -2 22 -2 33 -2
20 -6 21 -59 15 -32 -4 -67 -8 -78 -9 -16 -2 -22 7 -29 45 -5 27 -7 50 -4 53
3 3 39 11 79 18 73 12 74 13 74 42 0 37 -12 38 -143 20z"/>
<path d="M13457 2863 c-3 -4 -17 -104 -32 -222 -30 -234 -30 -234 30 -229 l30
3 24 213 c14 125 20 217 15 222 -14 13 -61 23 -67 13z"/>
<path d="M13694 2803 c-9 -20 -35 -91 -59 -157 -23 -67 -53 -145 -64 -175 -12
-30 -18 -58 -14 -62 5 -5 23 -12 41 -15 30 -6 33 -4 51 40 19 42 23 46 54 46
76 0 93 -9 103 -53 8 -37 13 -42 44 -49 19 -3 39 -3 43 1 5 5 -13 106 -39 226
-44 198 -50 218 -72 226 -49 19 -72 11 -88 -28z"/>
<path d="M14488 2833 c-22 -6 -22 -19 0 -258 l17 -180 38 1 c21 1 40 4 43 7 6
5 -19 313 -32 400 -6 38 -17 43 -66 30z"/>
<path d="M14127 2813 c-7 -7 1 -382 9 -421 4 -20 10 -23 42 -20 l37 3 3 83 3
82 48 0 c54 0 107 29 128 70 33 65 3 167 -57 197 -26 13 -201 18 -213 6z"/>
<path d="M14028 2094 c-36 -19 -58 -63 -58 -115 0 -33 6 -47 34 -75 29 -29 41
-34 81 -34 40 0 52 5 81 34 28 28 34 42 34 75 0 56 -22 95 -64 115 -42 20 -72
20 -108 0z"/>
</g>
</svg>
